# xmcd CD database file
#
# Track frame offsets:
#	150
#	13179
#	29522
#	39729
#	47914
#	65815
#	82421
#	99537
#	108085
#	124824
#	142915
#
# Disc length: 2056 seconds
#
# Revision: 2
# Processed by: cddbd v1.5.1PL0 Copyright (c) Steve Scherf et al.
# Submitted via: CDex 1.51
#
DISCID=9e08060b
DTITLE=T-Bone Walker - The Legendary T-Bone Walker
DYEAR=1967
DGENRE=Blues
TTITLE0=Treat Your Daddy Well
TTITLE1=You Ought To Know Better
TTITLE2=Let Your Hair Down Baby
TTITLE3=Old Time Used To Be
TTITLE4=It Ain't No Right In You
TTITLE5=I Ain't Your Fool No More
TTITLE6=Don't Let Your Heartache Catch You Crying
TTITLE7=I Don't Be Jiving
TTITLE8=Hate To See You Go
TTITLE9=Takes A Lot Of Know-How
TTITLE10=You Don't Love Me And I Don't Care
EXTD=YEAR: 1967
EXTT0=
EXTT1=
EXTT2=
EXTT3=
EXTT4=
EXTT5=
EXTT6=
EXTT7=
EXTT8=
EXTT9=
EXTT10=
PLAYORDER=
